<svg class="fill-accent h-10 w-auto" xmlns="http://www.w3.org/2000/svg" xml:space="preserve" viewBox="0 0 1000 1000"><path d="M570.49 12.99c-7.48 1.66-22.87 7.48-34.51 13.3-11.43 5.61-22.45 10.39-24.32 10.39-1.87 0-11.64-4.16-21.62-9.35-31.6-16.21-54.88-19.12-76.5-9.56-9.35 4.16-23.7 16.01-29.93 24.94l-3.95 5.4h20.16c24.74 0 31.39 3.12 31.39 14.55 0 9.98-4.57 11.43-34.3 11.43-102.48 0-158.81 30.35-183.97 99.36-9.56 26.4-12.68 44.28-13.93 83.57-1.45 46.77 2.29 79.82 16.42 148.63 10.39 50.93 10.6 52.8 10.81 89.39.21 30.14-.42 39.7-3.33 49.06-4.78 15.38-15.17 30.35-26.19 38.25-8.52 5.82-10.19 6.23-29.1 6.23-17.67 0-21.41-.62-30.77-5.61-9.54-4.98-20.35-15.17-27.42-25.77-4.37-6.45-1.46 24.53 3.74 41.78 14.55 46.15 41.16 79.41 74.42 92.92 10.39 4.16 15.38 4.78 40.95 4.78 32.84 0 46.77-2.91 70.68-14.34 8.11-3.74 18.71-10.6 23.91-15.18l9.15-8.31-8.52-18.5c-11.02-23.91-20.58-54.05-24.74-78.37-5.2-29.31-3.12-81.07 4.16-107.47 12.06-42.82 34.92-82.73 67.14-116.41 19.54-20.58 35.34-33.26 57.58-46.15 8.11-4.78 15.18-8.94 15.8-9.35.62-.62-1.66-3.33-5.2-6.03-17.46-14.14-54.88-14.97-93.33-2.08-23.49 7.9-34.51 9.15-42.2 4.78-4.78-2.7-14.14-13.51-12.68-14.97.42-.42 4.57.42 8.94 2.08 4.57 1.66 9.98 2.91 11.85 3.12 2.08 0 11.43-7.07 20.79-15.59 9.56-8.73 22.24-19.13 28.48-23.28 12.68-8.52 32.01-15.17 43.65-15.17 20.37 0 45.52 13.72 68.39 37.21l13.91 14.13 14.14-3.33 14.14-3.33-1.25-11.43c-2.5-22.24-10.19-39.29-22.87-50.51-14.97-13.3-51.14-23.7-74.63-21.2l-10.6 1.04 8.31-3.12c4.57-1.87 16.84-4.78 27.02-6.44 34.3-6.03 61.11 0 80.65 17.88 13.51 12.26 21.83 28.48 25.98 50.93l3.12 16.63 38.67.21c38.04.21 70.68 3.53 102.06 10.39l13.51 2.91 11.64-12.47c21-22.24 30.35-45.73 32.43-80.03 1.46-24.74-1.46-45.52-9.56-69.22-8.32-24.11-17.46-38.46-36.59-57.58-18.71-18.92-37.62-30.14-59.45-35.34-16.4-3.75-54.03-3.75-72.53.2z"/><path d="M541.39 289.25c-101.44 16.84-177.32 79.2-202.68 166.51-11.23 38.67-11.23 81.49.21 120.98 7.28 25.36 25.36 61.32 41.78 82.94 15.17 20.16 16.42 23.7 22.66 64.44 2.49 16.01 3.74 36.79 3.74 60.28l.21 35.75 10.39 2.29c5.82 1.25 73.17 15.38 149.67 31.39a55671.91 55671.91 0 0 1 144.47 30.35c4.57 1.25 4.16.21-4.16-9.15-12.68-14.13-24.32-34.51-27.23-47.81-4.99-21.62 3.95-35.75 27.65-44.28 7.28-2.5 18.5-6.45 25.15-8.73 6.45-2.29 11.85-4.78 11.85-5.61-.21-.63-15.8-8.94-34.92-18.29-53.84-26.4-107.26-60.49-167.54-107.26-36.79-28.48-44.9-36.58-44.9-44.48 0-8.52 8.31-17.25 16.42-17.25 4.78 0 12.47 4.99 32.84 21.2C628.49 668 717.87 722.05 774 740.13c12.68 4.16 23.7 7.48 24.32 7.48.83 0 .83-10.6.21-23.49l-1.25-23.7 12.26-9.14c6.86-4.99 12.27-9.56 12.47-10.19 0-.62-8.11-2.7-18.09-4.78-86.06-17.46-186.05-68.81-259.42-132.83l-8.11-7.28 6.44-7.48c9.99-11.22 12.49-21.62 8.33-34.09-1.87-5.4-2.7-10.6-1.87-11.43.83-.62 64.86-18.92 142.39-40.33 92.71-25.78 140.73-39.91 140.73-41.78 0-4.57-39.7-42.61-57.58-55.29-34.72-24.74-79.82-44.28-122.85-53.63-26.61-5.62-85.02-7.28-110.59-2.92zM511.87 491.1c2.5 2.91 4.57 7.9 4.57 11.43 0 8.73-9.98 18.5-18.71 18.5-7.9 0-18.71-9.77-18.71-17.05.42-17.66 21.21-25.98 32.85-12.88z"/><path d="M831.37 437.46c-11.43 3.95-20.99 7.48-21.2 7.48-.21.21 7.07 24.32 16.01 53.84l16.21 53.63-23.7 44.07c-13.1 24.32-23.7 44.69-23.7 45.32 0 2.29 48.23 10.6 49.89 8.73 1.04-.83 12.06-20.99 24.74-44.48 16.22-30.35 23.08-45.11 23.08-49.89 0-9.77-35.55-126.6-38.25-126.39-1.25.21-11.64 3.54-23.08 7.69z"/><path d="M753.42 461.16c-12.06 3.53-22.03 6.44-22.24 6.65-.21.21 4.57 17.46 10.81 38.04 6.24 20.79 11.43 38.87 11.43 40.33 0 1.25-7.69 17.04-17.05 34.92-9.56 17.88-17.46 33.05-17.88 33.88-.83 1.66 10.18 6.86 32.22 15.17l12.89 4.99 20.79-39.29c12.47-23.07 20.99-41.57 20.99-45.11 0-3.12-6.03-25.98-13.51-50.51-7.48-24.53-13.51-44.69-13.51-45.11.01-1.03-2.7-.4-24.94 6.04zM680.04 482.16c-20.16 5.82-22.45 6.86-21.62 10.6.42 2.49 3.12 12.47 5.82 22.24l4.78 17.88-7.9 15.38c-4.37 8.52-9.77 18.29-11.85 21.83l-3.95 6.44 7.9 5.2c4.16 2.91 13.93 8.52 21.41 12.68l13.51 7.69 16.01-29.93c9.15-16.84 16.01-32.22 16.01-35.55 0-6.45-14.97-61.53-16.63-61.12-.62.01-11.23 3.12-23.49 6.66zM606.87 503.15c-22.24 6.45-22.87 6.86-22.24 12.27.21 3.12-.83 7.9-2.7 10.6-3.33 4.99-3.33 4.99 17.05 19.54l20.37 14.76 6.86-11.85c10.81-19.13 12.06-24.95 7.48-39.5l-3.95-12.26-22.87 6.44zM373.43 888.13c-10.6 21.41-18.92 39.08-18.5 39.71.62.42 69.01 11.02 152.37 23.7 83.36 12.47 175.44 26.4 204.55 30.77 29.1 4.36 53.21 7.9 53.21 7.69.83-.83-34.51-71.92-35.55-71.92-.83 0-76.5-15.38-168.17-34.3-91.67-18.92-167.13-34.3-167.55-34.3-.61-.01-9.76 17.45-20.36 38.65z"/></svg>